{
  "accessors": [
    {
      "bufferView": 2,
      "componentType": 5126,
      "count": 2004,
      "max": [
        3.813995361328125,
        0.3097398281097412,
        2.6759979724884033
      ],
      "min": [
        -3.8140039443969727,
        -0.14771991968154907,
        -2.6767947673797607
      ],
      "type": "VEC3"
    },
    {
      "bufferView": 2,
      "byteOffset": 24048,
      "componentType": 5126,
      "count": 2004,
      "max": [
        1.0,
        1.0,
        1.0
      ],
      "min": [
        -1.0,
        -1.0,
        -1.0
      ],
      "type": "VEC3"
    },
    {
      "bufferView": 1,
      "componentType": 5126,
      "count": 2004,
      "max": [
        1.0,
        1.0
      ],
      "min": [
        0.0,
        0.0
      ],
      "type": "VEC2"
    },
    {
      "bufferView": 0,
      "componentType": 5125,
      "count": 5799,
      "type": "SCALAR"
    },
    {
      "bufferView": 2,
      "byteOffset": 48096,
      "componentType": 5126,
      "count": 20,
      "max": [
        2.9991583824157715,
        0.13766102492809296,
        1.8840525150299072
      ],
      "min": [
        -2.963949203491211,
        0.046838030219078064,
        -2.6767947673797607
      ],
      "type": "VEC3"
    },
    {
      "bufferView": 2,
      "byteOffset": 48336,
      "componentType": 5126,
      "count": 20,
      "max": [
        2.728227173065534e-07,
        1.0,
        -0.0
      ],
      "min": [
        0.0,
        -1.0,
        -0.0
      ],
      "type": "VEC3"
    },
    {
      "bufferView": 1,
      "byteOffset": 16032,
      "componentType": 5126,
      "count": 20,
      "max": [
        0.9127809405326843,
        0.8284383416175842
      ],
      "min": [
        0.3018638789653778,
        0.43130046129226685
      ],
      "type": "VEC2"
    },
    {
      "bufferView": 0,
      "byteOffset": 23196,
      "componentType": 5125,
      "count": 48,
      "type": "SCALAR"
    },
    {
      "bufferView": 2,
      "byteOffset": 48576,
      "componentType": 5126,
      "count": 128,
      "max": [
        3.8019626140594482,
        0.11027728766202927,
        1.866585373878479
      ],
      "min": [
        -3.8140029907226563,
        0.030741803348064423,
        1.0329654216766357
      ],
      "type": "VEC3"
    },
    {
      "bufferView": 2,
      "byteOffset": 50112,
      "componentType": 5126,
      "count": 128,
      "max": [
        1.0,
        1.0,
        1.0
      ],
      "min": [
        -1.0,
        -1.0,
        -1.0
      ],
      "type": "VEC3"
    },
    {
      "bufferView": 1,
      "byteOffset": 16192,
      "componentType": 5126,
      "count": 128,
      "max": [
        0.96875,
        0.9868778586387634
      ],
      "min": [
        0.0,
        0.8185646533966064
      ],
      "type": "VEC2"
    },
    {
      "bufferView": 0,
      "byteOffset": 23388,
      "componentType": 5125,
      "count": 282,
      "type": "SCALAR"
    },
    {
      "bufferView": 2,
      "byteOffset": 51648,
      "componentType": 5126,
      "count": 823,
      "max": [
        3.813995361328125,
        0.1420096606016159,
        2.0532643795013428
      ],
      "min": [
        -3.8267581462860107,
        -0.06644528359174728,
        -2.3988559246063232
      ],
      "type": "VEC3"
    },
    {
      "bufferView": 2,
      "byteOffset": 61524,
      "componentType": 5126,
      "count": 823,
      "max": [
        1.0,
        1.0,
        1.0
      ],
      "min": [
        -1.0,
        -1.0,
        -1.0
      ],
      "type": "VEC3"
    },
    {
      "bufferView": 1,
      "byteOffset": 17216,
      "componentType": 5126,
      "count": 823,
      "max": [
        1.0,
        1.0
      ],
      "min": [
        0.0,
        0.0
      ],
      "type": "VEC2"
    },
    {
      "bufferView": 0,
      "byteOffset": 24516,
      "componentType": 5125,
      "count": 1914,
      "type": "SCALAR"
    },
    {
      "bufferView": 2,
      "byteOffset": 71400,
      "componentType": 5126,
      "count": 184,
      "max": [
        -3.753777027130127,
        0.14206303656101227,
        0.9001250863075256
      ],
      "min": [
        -3.8489630222320557,
        -0.09176292270421982,
        0.573531985282898
      ],
      "type": "VEC3"
    },
    {
      "bufferView": 2,
      "byteOffset": 73608,
      "componentType": 5126,
      "count": 184,
      "max": [
        1.0,
        0.9999948740005493,
        0.9999949336051941
      ],
      "min": [
        -1.0,
        -0.9999948143959045,
        -0.9999948740005493
      ],
      "type": "VEC3"
    },
    {
      "bufferView": 1,
      "byteOffset": 23800,
      "componentType": 5126,
      "count": 184,
      "max": [
        0.929183304309845,
        0.5645991563796997
      ],
      "min": [
        0.125,
        0.1854008287191391
      ],
      "type": "VEC2"
    },
    {
      "bufferView": 0,
      "byteOffset": 32172,
      "componentType": 5125,
      "count": 306,
      "type": "SCALAR"
    },
    {
      "bufferView": 2,
      "byteOffset": 75816,
      "componentType": 5126,
      "count": 180,
      "max": [
        3.813999652862549,
        0.5926797389984131,
        5.176000118255615
      ],
      "min": [
        -3.813999652862549,
        0.34111830592155457,
        -0.06604503840208054
      ],
      "type": "VEC3"
    },
    {
      "bufferView": 2,
      "byteOffset": 77976,
      "componentType": 5126,
      "count": 180,
      "max": [
        1.0,
        1.0,
        1.0
      ],
      "min": [
        -1.0,
        -1.0,
        -1.0
      ],
      "type": "VEC3"
    },
    {
      "bufferView": 1,
      "byteOffset": 25272,
      "componentType": 5126,
      "count": 180,
      "max": [
        0.9908071160316467,
        0.9493300318717957
      ],
      "min": [
        0.0,
        0.0
      ],
      "type": "VEC2"
    },
    {
      "bufferView": 0,
      "byteOffset": 33396,
      "componentType": 5125,
      "count": 414,
      "type": "SCALAR"
    },
    {
      "bufferView": 2,
      "byteOffset": 80136,
      "componentType": 5126,
      "count": 124,
      "max": [
        3.593520164489746,
        0.4036184549331665,
        4.764717102050781
      ],
      "min": [
        -3.5574591159820557,
        -0.28965330123901367,
        -0.009599271230399609
      ],
      "type": "VEC3"
    },
    {
      "bufferView": 2,
      "byteOffset": 81624,
      "componentType": 5126,
      "count": 124,
      "max": [
        1.0,
        2.6227500171671636e-08,
        1.0
      ],
      "min": [
        -1.0,
        -1.0,
        -1.0
      ],
      "type": "VEC3"
    },
    {
      "bufferView": 1,
      "byteOffset": 26712,
      "componentType": 5126,
      "count": 124,
      "max": [
        0.9358619451522827,
        0.9287871718406677
      ],
      "min": [
        0.3019086718559265,
        0.0
      ],
      "type": "VEC2"
    },
    {
      "bufferView": 0,
      "byteOffset": 35052,
      "componentType": 5125,
      "count": 282,
      "type": "SCALAR"
    },
    {
      "bufferView": 2,
      "byteOffset": 83112,
      "componentType": 5126,
      "count": 62,
      "max": [
        3.7789995670318604,
        0.51252281665802,
        5.141000270843506
      ],
      "min": [
        -3.7789995670318604,
        0.34111833572387695,
        -0.06604503840208054
      ],
      "type": "VEC3"
    },
    {
      "bufferView": 2,
      "byteOffset": 83856,
      "componentType": 5126,
      "count": 62,
      "max": [
        1.0,
        0.0,
        0.24754926562309265
      ],
      "min": [
        -1.0,
        -1.0,
        -0.5513572096824646
      ],
      "type": "VEC3"
    },
    {
      "bufferView": 1,
      "byteOffset": 27704,
      "componentType": 5126,
      "count": 62,
      "max": [
        0.8926759362220764,
        0.891571044921875
      ],
      "min": [
        0.5983031392097473,
        0.39668217301368713
      ],
      "type": "VEC2"
    },
    {
      "bufferView": 0,
      "byteOffset": 36180,
      "componentType": 5125,
      "count": 168,
      "type": "SCALAR"
    },
    {
      "bufferView": 2,
      "byteOffset": 84600,
      "componentType": 5126,
      "count": 8024,
      "max": [
        3.5906147956848145,
        0.022459130734205246,
        1.0841872692108154
      ],
      "min": [
        -3.329167366027832,
        -0.022459130734205246,
        -0.9966264367103577
      ],
      "type": "VEC3"
    },
    {
      "bufferView": 2,
      "byteOffset": 180888,
      "componentType": 5126,
      "count": 8024,
      "max": [
        1.0,
        1.0,
        1.0
      ],
      "min": [
        -1.0,
        -1.0,
        -1.0
      ],
      "type": "VEC3"
    },
    {
      "bufferView": 1,
      "byteOffset": 28200,
      "componentType": 5126,
      "count": 8024,
      "max": [
        0.9649178385734558,
        0.9654292464256287
      ],
      "min": [
        0.0,
        0.39080169796943665
      ],
      "type": "VEC2"
    },
    {
      "bufferView": 0,
      "byteOffset": 36852,
      "componentType": 5125,
      "count": 18048,
      "type": "SCALAR"
    }
  ],
  "asset": {
    "extras": {
      "author": "GeniusPilot2016 (https://sketchfab.com/GeniusPilot2016)",
      "license": "CC-BY-4.0 (http://creativecommons.org/licenses/by/4.0/)",
      "source": "https://sketchfab.com/3d-models/laptop-676e365f61f544e9a0236b7519e1bc90",
      "title": "Laptop"
    },
    "generator": "Sketchfab-15.17.0",
    "version": "2.0"
  },
  "bufferViews": [
    {
      "buffer": 0,
      "byteLength": 109044,
      "name": "floatBufferViews",
      "target": 34963
    },
    {
      "buffer": 0,
      "byteLength": 92392,
      "byteOffset": 109044,
      "byteStride": 8,
      "name": "floatBufferViews",
      "target": 34962
    },
    {
      "buffer": 0,
      "byteLength": 277176,
      "byteOffset": 201436,
      "byteStride": 12,
      "name": "floatBufferViews",
      "target": 34962
    }
  ],
  "buffers": [
    {
      "byteLength": 478612,
      "uri": "scene.bin"
    }
  ],
  "materials": [
    {
      "doubleSided": true,
      "name": "case",
      "pbrMetallicRoughness": {
        "baseColorFactor": [
          0.0451862,
          0.0451862,
          0.0451862,
          1.0
        ],
        "metallicFactor": 0.0,
        "roughnessFactor": 0.5
      }
    },
    {
      "doubleSided": true,
      "name": "touchpad",
      "pbrMetallicRoughness": {
        "baseColorFactor": [
          0.8,
          0.8,
          0.8,
          1.0
        ],
        "metallicFactor": 0.0,
        "roughnessFactor": 0.5
      }
    },
    {
      "doubleSided": true,
      "name": "ports",
      "pbrMetallicRoughness": {
        "baseColorFactor": [
          0.137486,
          0.137486,
          0.137486,
          1.0
        ],
        "metallicFactor": 0.0,
        "roughnessFactor": 0.5
      }
    },
    {
      "doubleSided": true,
      "name": "holes",
      "pbrMetallicRoughness": {
        "baseColorFactor": [
          0.0,
          0.0,
          0.0,
          1.0
        ],
        "metallicFactor": 0.0,
        "roughnessFactor": 0.5
      }
    },
    {
      "doubleSided": true,
      "name": "ethernet_port",
      "pbrMetallicRoughness": {
        "baseColorFactor": [
          0.348551,
          0.348551,
          0.348551,
          1.0
        ],
        "metallicFactor": 0.0,
        "roughnessFactor": 0.5
      }
    },
    {
      "doubleSided": true,
      "name": "display",
      "pbrMetallicRoughness": {
        "baseColorFactor": [
          0.0,
          0.0,
          0.0,
          1.0
        ],
        "metallicFactor": 0.0,
        "roughnessFactor": 0.5
      }
    },
    {
      "doubleSided": true,
      "name": "bezel",
      "pbrMetallicRoughness": {
        "baseColorFactor": [
          0.0295568,
          0.0295568,
          0.0295568,
          1.0
        ],
        "metallicFactor": 0.0,
        "roughnessFactor": 0.5
      }
    },
    {
      "doubleSided": true,
      "name": "keyboard",
      "pbrMetallicRoughness": {
        "baseColorFactor": [
          0.0295568,
          0.0295568,
          0.0295568,
          1.0
        ],
        "metallicFactor": 0.0,
        "roughnessFactor": 0.5
      }
    }
  ],
  "meshes": [
    {
      "name": "Object_0",
      "primitives": [
        {
          "attributes": {
            "NORMAL": 1,
            "POSITION": 0,
            "TEXCOORD_0": 2
          },
          "indices": 3,
          "material": 0,
          "mode": 4
        }
      ]
    },
    {
      "name": "Object_1",
      "primitives": [
        {
          "attributes": {
            "NORMAL": 5,
            "POSITION": 4,
            "TEXCOORD_0": 6
          },
          "indices": 7,
          "material": 1,
          "mode": 4
        }
      ]
    },
    {
      "name": "Object_2",
      "primitives": [
        {
          "attributes": {
            "NORMAL": 9,
            "POSITION": 8,
            "TEXCOORD_0": 10
          },
          "indices": 11,
          "material": 2,
          "mode": 4
        }
      ]
    },
    {
      "name": "Object_3",
      "primitives": [
        {
          "attributes": {
            "NORMAL": 13,
            "POSITION": 12,
            "TEXCOORD_0": 14
          },
          "indices": 15,
          "material": 3,
          "mode": 4
        }
      ]
    },
    {
      "name": "Object_4",
      "primitives": [
        {
          "attributes": {
            "NORMAL": 17,
            "POSITION": 16,
            "TEXCOORD_0": 18
          },
          "indices": 19,
          "material": 4,
          "mode": 4
        }
      ]
    },
    {
      "name": "Object_5",
      "primitives": [
        {
          "attributes": {
            "NORMAL": 21,
            "POSITION": 20,
            "TEXCOORD_0": 22
          },
          "indices": 23,
          "material": 0,
          "mode": 4
        }
      ]
    },
    {
      "name": "Object_6",
      "primitives": [
        {
          "attributes": {
            "NORMAL": 25,
            "POSITION": 24,
            "TEXCOORD_0": 26
          },
          "indices": 27,
          "material": 5,
          "mode": 4
        }
      ]
    },
    {
      "name": "Object_7",
      "primitives": [
        {
          "attributes": {
            "NORMAL": 29,
            "POSITION": 28,
            "TEXCOORD_0": 30
          },
          "indices": 31,
          "material": 6,
          "mode": 4
        }
      ]
    },
    {
      "name": "Object_8",
      "primitives": [
        {
          "attributes": {
            "NORMAL": 33,
            "POSITION": 32,
            "TEXCOORD_0": 34
          },
          "indices": 35,
          "material": 7,
          "mode": 4
        }
      ]
    }
  ],
  "nodes": [
    {
      "children": [
        1
      ],
      "matrix": [
        1.0,
        0.0,
        0.0,
        0.0,
        0.0,
        2.220446049250313e-16,
        -1.0,
        0.0,
        0.0,
        1.0,
        2.220446049250313e-16,
        0.0,
        0.0,
        0.0,
        0.0,
        1.0
      ],
      "name": "Sketchfab_model"
    },
    {
      "children": [
        2
      ],
      "name": "root"
    },
    {
      "children": [
        3,
        9,
        13
      ],
      "matrix": [
        1.0,
        0.0,
        0.0,
        0.0,
        0.0,
        2.220446049250313e-16,
        1.0,
        0.0,
        0.0,
        -1.0,
        2.220446049250313e-16,
        0.0,
        0.0,
        0.0,
        0.0,
        1.0
      ],
      "name": "GLTF_SceneRootNode"
    },
    {
      "children": [
        4,
        5,
        6,
        7,
        8
      ],
      "matrix": [
        -0.11457563936710226,
        0.0,
        1.7300440616404342e-08,
        0.0,
        0.0,
        0.11457563936710358,
        0.0,
        0.0,
        -1.7300440616404342e-08,
        0.0,
        -0.11457563936710226,
        0.0,
        0.5008814930915833,
        0.021161146461963654,
        0.4542132019996643,
        1.0
      ],
      "name": "Cube_0"
    },
    {
      "mesh": 0,
      "name": "Object_4"
    },
    {
      "mesh": 1,
      "name": "Object_5"
    },
    {
      "mesh": 2,
      "name": "Object_6"
    },
    {
      "mesh": 3,
      "name": "Object_7"
    },
    {
      "mesh": 4,
      "name": "Object_8"
    },
    {
      "children": [
        10,
        11,
        12
      ],
      "matrix": [
        -0.11457563936710297,
        -9.34733133091331e-09,
        7.172459795924813e-09,
        0.0,
        4.486720339604573e-09,
        -0.014234094329945154,
        0.05312236896616572,
        0.0,
        -7.172458863108901e-09,
        0.11067155553410433,
        0.029654350733446584,
        0.0,
        0.5008814930915833,
        0.02821081504225731,
        0.7416818141937256,
        1.0
      ],
      "name": "Cube.001_3"
    },
    {
      "mesh": 5,
      "name": "Object_10"
    },
    {
      "mesh": 6,
      "name": "Object_11"
    },
    {
      "mesh": 7,
      "name": "Object_12"
    },
    {
      "children": [
        14
      ],
      "matrix": [
        -0.11457563936710226,
        0.0,
        1.7300440616404342e-08,
        0.0,
        0.0,
        0.11457563936710358,
        0.0,
        0.0,
        -1.7300440616404342e-08,
        0.0,
        -0.11457563936710226,
        0.0,
        0.5154476165771484,
        0.03716377913951874,
        0.541009783744812,
        1.0
      ],
      "name": "Cube.007_4"
    },
    {
      "mesh": 8,
      "name": "Object_14"
    }
  ],
  "scene": 0,
  "scenes": [
    {
      "name": "Sketchfab_Scene",
      "nodes": [
        0
      ]
    }
  ]
}
