{
  "accessors": [
    {
      "bufferView": 2,
      "componentType": 5126,
      "count": 65532,
      "max": [
        1.9495869874954224,
        0.18814900517463684,
        -3.952505111694336
      ],
      "min": [
        -1.4931459426879883,
        -2.4783430099487305,
        -7.132666110992432
      ],
      "type": "VEC3"
    },
    {
      "bufferView": 2,
      "byteOffset": 786384,
      "componentType": 5126,
      "count": 65532,
      "max": [
        0.9989127516746521,
        0.9998317956924438,
        0.9999838471412659
      ],
      "min": [
        -0.999924898147583,
        -0.9999993443489075,
        -0.999977171421051
      ],
      "type": "VEC3"
    },
    {
      "bufferView": 1,
      "componentType": 5126,
      "count": 65532,
      "max": [
        0.9997010231018066,
        0.9989219903945923
      ],
      "min": [
        9.999999747378752e-06,
        0.00011600000289035961
      ],
      "type": "VEC2"
    },
    {
      "bufferView": 0,
      "componentType": 5125,
      "count": 65532,
      "type": "SCALAR"
    },
    {
      "bufferView": 2,
      "byteOffset": 1572768,
      "componentType": 5126,
      "count": 65532,
      "max": [
        1.9415340423583984,
        1.0766149759292603,
        -3.981131076812744
      ],
      "min": [
        -0.4613859951496124,
        -2.475498914718628,
        -6.936192989349365
      ],
      "type": "VEC3"
    },
    {
      "bufferView": 2,
      "byteOffset": 2359152,
      "componentType": 5126,
      "count": 65532,
      "max": [
        0.9992086291313171,
        0.9999308586120605,
        0.9999791383743286
      ],
      "min": [
        -0.9999642968177795,
        -0.9999585151672363,
        -0.999968409538269
      ],
      "type": "VEC3"
    },
    {
      "bufferView": 1,
      "byteOffset": 524256,
      "componentType": 5126,
      "count": 65532,
      "max": [
        0.9996799826622009,
        0.9994180202484131
      ],
      "min": [
        0.0001049999991664663,
        6.0999998822808266e-05
      ],
      "type": "VEC2"
    },
    {
      "bufferView": 0,
      "byteOffset": 262128,
      "componentType": 5125,
      "count": 65532,
      "type": "SCALAR"
    },
    {
      "bufferView": 2,
      "byteOffset": 3145536,
      "componentType": 5126,
      "count": 65532,
      "max": [
        1.838021993637085,
        1.0917949676513672,
        -3.942841053009033
      ],
      "min": [
        -1.4939310550689697,
        -2.4831249713897705,
        -6.953668117523193
      ],
      "type": "VEC3"
    },
    {
      "bufferView": 2,
      "byteOffset": 3931920,
      "componentType": 5126,
      "count": 65532,
      "max": [
        0.9998455047607422,
        0.9999344348907471,
        0.9999479651451111
      ],
      "min": [
        -0.9998815655708313,
        -0.9999387860298157,
        -0.999961256980896
      ],
      "type": "VEC3"
    },
    {
      "bufferView": 1,
      "byteOffset": 1048512,
      "componentType": 5126,
      "count": 65532,
      "max": [
        0.9997289776802063,
        0.9997439980506897
      ],
      "min": [
        9.200000204145908e-05,
        3.099999958067201e-05
      ],
      "type": "VEC2"
    },
    {
      "bufferView": 0,
      "byteOffset": 524256,
      "componentType": 5125,
      "count": 65532,
      "type": "SCALAR"
    },
    {
      "bufferView": 2,
      "byteOffset": 4718304,
      "componentType": 5126,
      "count": 16926,
      "max": [
        1.9368150234222412,
        -0.2713319957256317,
        -3.9921789169311523
      ],
      "min": [
        0.025218000635504723,
        -2.44123911857605,
        -7.0219221115112305
      ],
      "type": "VEC3"
    },
    {
      "bufferView": 2,
      "byteOffset": 4921416,
      "componentType": 5126,
      "count": 16926,
      "max": [
        0.9950193762779236,
        0.9985321760177612,
        0.9996383190155029
      ],
      "min": [
        -0.9988524913787842,
        -0.9997918009757996,
        -0.999613881111145
      ],
      "type": "VEC3"
    },
    {
      "bufferView": 1,
      "byteOffset": 1572768,
      "componentType": 5126,
      "count": 16926,
      "max": [
        0.9994059801101685,
        0.9758589863777161
      ],
      "min": [
        0.01347300037741661,
        0.009596000425517559
      ],
      "type": "VEC2"
    },
    {
      "bufferView": 0,
      "byteOffset": 786384,
      "componentType": 5125,
      "count": 16926,
      "type": "SCALAR"
    }
  ],
  "asset": {
    "extras": {
      "author": "colinethille (https://sketchfab.com/colinethille)",
      "license": "CC-BY-4.0 (http://creativecommons.org/licenses/by/4.0/)",
      "source": "https://sketchfab.com/3d-models/teddy-bear-459ce5b99da947438d3ea11d7c0d4225",
      "title": "teddy_bear"
    },
    "generator": "Sketchfab-12.66.0",
    "version": "2.0"
  },
  "bufferViews": [
    {
      "buffer": 0,
      "byteLength": 854088,
      "name": "floatBufferViews",
      "target": 34963
    },
    {
      "buffer": 0,
      "byteLength": 1708176,
      "byteOffset": 854088,
      "byteStride": 8,
      "name": "floatBufferViews",
      "target": 34962
    },
    {
      "buffer": 0,
      "byteLength": 5124528,
      "byteOffset": 2562264,
      "byteStride": 12,
      "name": "floatBufferViews",
      "target": 34962
    }
  ],
  "buffers": [
    {
      "byteLength": 7686792,
      "uri": "scene.bin"
    }
  ],
  "extensionsUsed": [
    "KHR_materials_unlit"
  ],
  "images": [
    {
      "uri": "textures/teddy_baseColor.jpeg"
    }
  ],
  "materials": [
    {
      "doubleSided": true,
      "extensions": {
        "KHR_materials_unlit": {}
      },
      "name": "teddy",
      "pbrMetallicRoughness": {
        "baseColorTexture": {
          "index": 0
        },
        "metallicFactor": 0.0
      }
    }
  ],
  "meshes": [
    {
      "name": "teddy_teddy_0",
      "primitives": [
        {
          "attributes": {
            "NORMAL": 1,
            "POSITION": 0,
            "TEXCOORD_0": 2
          },
          "indices": 3,
          "material": 0,
          "mode": 4
        }
      ]
    },
    {
      "name": "teddy_teddy_0",
      "primitives": [
        {
          "attributes": {
            "NORMAL": 5,
            "POSITION": 4,
            "TEXCOORD_0": 6
          },
          "indices": 7,
          "material": 0,
          "mode": 4
        }
      ]
    },
    {
      "name": "teddy_teddy_0",
      "primitives": [
        {
          "attributes": {
            "NORMAL": 9,
            "POSITION": 8,
            "TEXCOORD_0": 10
          },
          "indices": 11,
          "material": 0,
          "mode": 4
        }
      ]
    },
    {
      "name": "teddy_teddy_0",
      "primitives": [
        {
          "attributes": {
            "NORMAL": 13,
            "POSITION": 12,
            "TEXCOORD_0": 14
          },
          "indices": 15,
          "material": 0,
          "mode": 4
        }
      ]
    }
  ],
  "nodes": [
    {
      "children": [
        1
      ],
      "matrix": [
        1.0,
        -1.608122622957729e-16,
        -1.6081226229577294e-16,
        0.0,
        -1.6081226229577292e-16,
        3.828568672208042e-16,
        -1.0,
        0.0,
        1.6081226229577292e-16,
        1.0,
        3.828568672208042e-16,
        0.0,
        5.615038871765137,
        12.704819679260249,
        22.524068832397464,
        1.0
      ],
      "name": "Sketchfab_model"
    },
    {
      "children": [
        2
      ],
      "matrix": [
        1.0,
        0.0,
        0.0,
        0.0,
        0.0,
        0.0,
        1.0,
        0.0,
        0.0,
        -1.0,
        0.0,
        0.0,
        0.0,
        0.0,
        0.0,
        1.0
      ],
      "name": "teddy.fbx"
    },
    {
      "children": [
        3,
        6
      ],
      "name": "RootNode"
    },
    {
      "children": [
        4
      ],
      "matrix": [
        -29.08647719990347,
        -5.518906457566863,
        -95.51711910171437,
        0.0,
        56.63930913109449,
        79.46723428563203,
        -21.83912397841966,
        0.0,
        77.11008775993375,
        -60.45246356562044,
        -19.98834696773717,
        0.0,
        407.6245422363281,
        590.38623046875,
        -100.54539489746094,
        1.0
      ],
      "name": "Light"
    },
    {
      "children": [
        5
      ],
      "matrix": [
        1.0,
        0.0,
        0.0,
        0.0,
        0.0,
        2.220446049250313e-16,
        1.0,
        0.0,
        0.0,
        -1.0,
        2.220446049250313e-16,
        0.0,
        0.0,
        0.0,
        0.0,
        1.0
      ],
      "name": "Object_4"
    },
    {
      "name": "Object_5"
    },
    {
      "children": [
        7,
        8,
        9,
        10
      ],
      "matrix": [
        9.481005206865449,
        -97.227595445401,
        21.375305805858876,
        0.0,
        95.70398010975694,
        2.991815013850041,
        -28.84089516769809,
        0.0,
        27.401803449308723,
        23.191428728125878,
        93.33434698519444,
        0.0,
        272.724365234375,
        299.95831298828125,
        380.5076904296875,
        1.0
      ],
      "name": "teddy"
    },
    {
      "mesh": 0,
      "name": "teddy_teddy_0"
    },
    {
      "mesh": 1,
      "name": "teddy_teddy_0"
    },
    {
      "mesh": 2,
      "name": "teddy_teddy_0"
    },
    {
      "mesh": 3,
      "name": "teddy_teddy_0"
    }
  ],
  "samplers": [
    {
      "magFilter": 9729,
      "minFilter": 9987,
      "wrapS": 10497,
      "wrapT": 10497
    }
  ],
  "scene": 0,
  "scenes": [
    {
      "name": "Sketchfab_Scene",
      "nodes": [
        0
      ]
    }
  ],
  "textures": [
    {
      "sampler": 0,
      "source": 0
    }
  ]
}
