# Blender 4.3.0
# www.blender.org
mtllib skybox.mtl
o Cube
v -63.559322 -63.559322 63.559322
v -63.559322 63.559322 63.559322
v -63.559322 -63.559322 -63.559322
v -63.559322 63.559322 -63.559322
v 63.559322 -63.559322 63.559322
v 63.559322 63.559322 63.559322
v 63.559322 -63.559322 -63.559322
v 63.559322 63.559322 -63.559322
vn 1.0000 -0.0000 -0.0000
vn -0.0000 -0.0000 1.0000
vn -1.0000 -0.0000 -0.0000
vn -0.0000 -0.0000 -1.0000
vn -0.0000 1.0000 -0.0000
vn -0.0000 -1.0000 -0.0000
vt 0.707836 0.332119
vt 0.547437 0.332119
vt 0.547437 0.652916
vt 0.707836 0.652916
vt 0.387038 0.332119
vt 0.387038 0.652916
vt 0.226639 0.332119
vt 0.226639 0.652916
vt 0.066241 0.332119
vt 0.066241 0.652916
vt 0.387038 0.011321
vt 0.226639 0.011321
vt 0.226640 0.973713
vt 0.387038 0.973713
s 0
usemtl Background
f 1/1/1 3/2/1 4/3/1 2/4/1
f 3/2/2 7/5/2 8/6/2 4/3/2
f 7/5/3 5/7/3 6/8/3 8/6/3
f 5/7/4 1/9/4 2/10/4 6/8/4
f 3/11/5 1/12/5 5/7/5 7/5/5
f 8/6/6 6/8/6 2/13/6 4/14/6
