# Blender 4.2.3 LTS
# www.blender.org
mtllib obal.mtl
o Cube.001
v -0.541986 -0.015234 0.710193
v -0.541986 -0.015234 -0.005541
v 0.541986 -0.015234 -0.005541
v 0.541986 -0.015234 0.710193
v -0.541986 0.015235 0.710193
v -0.541986 0.015235 0.005541
v 0.541986 0.015235 0.005541
v 0.541986 0.015235 0.710193
vn -0.0000 -1.0000 -0.0000
vn -0.0000 1.0000 -0.0000
vn 1.0000 -0.0000 -0.0000
vn -1.0000 -0.0000 -0.0000
vn -0.0000 -0.0000 1.0000
vn -0.0000 0.3418 -0.9398
vt 0.625000 0.500000
vt 0.625000 0.750000
vt 0.875000 0.750000
vt 0.875000 0.500000
s 0
usemtl obal
f 3/1/1 4/2/1 1/3/1 2/4/1
f 7/1/2 6/4/2 5/3/2 8/2/2
f 4/2/3 3/1/3 7/1/3 8/2/3
f 2/4/4 1/3/4 5/3/4 6/4/4
f 1/3/5 4/2/5 8/2/5 5/3/5
f 3/1/6 2/4/6 6/4/6 7/1/6
