{
  "accessors": [
    {
      "bufferView": 2,
      "componentType": 5126,
      "count": 228,
      "max": [
        1.850000023841858,
        1.7500028610229492,
        1.3807220458984375
      ],
      "min": [
        -1.8499999046325684,
        -1.7499971389770508,
        -1.380645751953125
      ],
      "type": "VEC3"
    },
    {
      "bufferView": 2,
      "byteOffset": 2736,
      "componentType": 5126,
      "count": 228,
      "max": [
        1.0,
        1.0,
        1.0
      ],
      "min": [
        -1.0,
        -1.0,
        -1.0
      ],
      "type": "VEC3"
    },
    {
      "bufferView": 1,
      "componentType": 5126,
      "count": 228,
      "max": [
        4.287758827209473,
        4.068634986877441
      ],
      "min": [
        -3.3537447452545166,
        -3.068634510040283
      ],
      "type": "VEC2"
    },
    {
      "bufferView": 1,
      "byteOffset": 1824,
      "componentType": 5126,
      "count": 228,
      "max": [
        4.287758827209473,
        4.068634986877441
      ],
      "min": [
        -3.3537447452545166,
        -3.068634510040283
      ],
      "type": "VEC2"
    },
    {
      "bufferView": 0,
      "componentType": 5125,
      "count": 420,
      "type": "SCALAR"
    },
    {
      "bufferView": 2,
      "byteOffset": 5472,
      "componentType": 5126,
      "count": 144,
      "max": [
        2.0024845600128174,
        3.41400146484375,
        -1.5352267026901245
      ],
      "min": [
        -2.2125792503356934,
        3.1023850440979004,
        -1.8468443155288696
      ],
      "type": "VEC3"
    },
    {
      "bufferView": 2,
      "byteOffset": 7200,
      "componentType": 5126,
      "count": 144,
      "max": [
        0.3712303340435028,
        1.0,
        0.9438733458518982
      ],
      "min": [
        -0.4661906361579895,
        -0.9438860416412354,
        -1.0
      ],
      "type": "VEC3"
    },
    {
      "bufferView": 1,
      "byteOffset": 3648,
      "componentType": 5126,
      "count": 144,
      "max": [
        2.6477794647216797,
        2.2079825401306152
      ],
      "min": [
        -1.7592424154281616,
        -1.2079825401306152
      ],
      "type": "VEC2"
    },
    {
      "bufferView": 1,
      "byteOffset": 4800,
      "componentType": 5126,
      "count": 144,
      "max": [
        2.6477794647216797,
        2.2079825401306152
      ],
      "min": [
        -1.7592424154281616,
        -1.2079825401306152
      ],
      "type": "VEC2"
    },
    {
      "bufferView": 0,
      "byteOffset": 1680,
      "componentType": 5125,
      "count": 216,
      "type": "SCALAR"
    },
    {
      "bufferView": 2,
      "byteOffset": 8928,
      "componentType": 5126,
      "count": 224,
      "max": [
        2.00248646736145,
        3.396111488342285,
        -1.5531222820281982
      ],
      "min": [
        -2.350233316421509,
        3.120272159576416,
        -1.828948736190796
      ],
      "type": "VEC3"
    },
    {
      "bufferView": 2,
      "byteOffset": 11616,
      "componentType": 5126,
      "count": 224,
      "max": [
        1.0,
        0.9438902139663696,
        1.0
      ],
      "min": [
        -1.0,
        -1.0,
        -0.9438716769218445
      ],
      "type": "VEC3"
    },
    {
      "bufferView": 1,
      "byteOffset": 5952,
      "componentType": 5126,
      "count": 224,
      "max": [
        2.6477794647216797,
        2.1334474086761475
      ],
      "min": [
        -1.8959885835647583,
        -1.1879820823669434
      ],
      "type": "VEC2"
    },
    {
      "bufferView": 0,
      "byteOffset": 2544,
      "componentType": 5125,
      "count": 336,
      "type": "SCALAR"
    },
    {
      "bufferView": 2,
      "byteOffset": 14304,
      "componentType": 5126,
      "count": 6891,
      "max": [
        7.790436267852783,
        1.3336225748062134,
        -6.705104827880859
      ],
      "min": [
        -3.8954641819000244,
        -0.2245454490184784,
        -6.860071182250977
      ],
      "type": "VEC3"
    },
    {
      "bufferView": 2,
      "byteOffset": 96996,
      "componentType": 5126,
      "count": 6891,
      "max": [
        1.0,
        1.0,
        1.0
      ],
      "min": [
        -1.0,
        -1.0,
        -1.0
      ],
      "type": "VEC3"
    },
    {
      "bufferView": 1,
      "byteOffset": 7744,
      "componentType": 5126,
      "count": 6891,
      "max": [
        0.875,
        1.0
      ],
      "min": [
        0.125,
        0.0
      ],
      "type": "VEC2"
    },
    {
      "bufferView": 0,
      "byteOffset": 3888,
      "componentType": 5125,
      "count": 25428,
      "type": "SCALAR"
    }
  ],
  "asset": {
    "extras": {
      "author": "sam (https://sketchfab.com/pigeons)",
      "license": "CC-BY-4.0 (http://creativecommons.org/licenses/by/4.0/)",
      "source": "https://sketchfab.com/3d-models/blinds-8733a81ae4f2444c8301110266a5145c",
      "title": "blinds"
    },
    "generator": "Sketchfab-12.79.0",
    "version": "2.0"
  },
  "bufferViews": [
    {
      "buffer": 0,
      "byteLength": 105600,
      "name": "floatBufferViews",
      "target": 34963
    },
    {
      "buffer": 0,
      "byteLength": 62872,
      "byteOffset": 105600,
      "byteStride": 8,
      "name": "floatBufferViews",
      "target": 34962
    },
    {
      "buffer": 0,
      "byteLength": 179688,
      "byteOffset": 168472,
      "byteStride": 12,
      "name": "floatBufferViews",
      "target": 34962
    }
  ],
  "buffers": [
    {
      "byteLength": 348160,
      "uri": "scene.bin"
    }
  ],
  "images": [
    {
      "uri": "textures/blind_baseColor.png"
    },
    {
      "uri": "textures/silver_baseColor.png"
    }
  ],
  "materials": [
    {
      "doubleSided": true,
      "name": "blind",
      "pbrMetallicRoughness": {
        "baseColorTexture": {
          "index": 0
        }
      }
    },
    {
      "doubleSided": true,
      "name": "silver",
      "pbrMetallicRoughness": {
        "baseColorTexture": {
          "index": 1
        },
        "roughnessFactor": 0.6540941839060843
      }
    },
    {
      "doubleSided": true,
      "name": "switch_white",
      "pbrMetallicRoughness": {
        "baseColorFactor": [
          0.955,
          1.0,
          0.997805,
          1.0
        ],
        "metallicFactor": 0.48000146286160106,
        "roughnessFactor": 0.678475210591118
      }
    }
  ],
  "meshes": [
    {
      "name": "pCube261_blind_0",
      "primitives": [
        {
          "attributes": {
            "NORMAL": 1,
            "POSITION": 0,
            "TEXCOORD_0": 2,
            "TEXCOORD_1": 3
          },
          "indices": 4,
          "material": 0,
          "mode": 4
        }
      ]
    },
    {
      "name": "pCube262_blind_0",
      "primitives": [
        {
          "attributes": {
            "NORMAL": 6,
            "POSITION": 5,
            "TEXCOORD_0": 7,
            "TEXCOORD_1": 8
          },
          "indices": 9,
          "material": 0,
          "mode": 4
        }
      ]
    },
    {
      "name": "pCube262_silver_0",
      "primitives": [
        {
          "attributes": {
            "NORMAL": 11,
            "POSITION": 10,
            "TEXCOORD_0": 12
          },
          "indices": 13,
          "material": 1,
          "mode": 4
        }
      ]
    },
    {
      "name": "group12_pCube232_switch_white_0",
      "primitives": [
        {
          "attributes": {
            "NORMAL": 15,
            "POSITION": 14,
            "TEXCOORD_0": 16
          },
          "indices": 17,
          "material": 2,
          "mode": 4
        }
      ]
    }
  ],
  "nodes": [
    {
      "children": [
        1
      ],
      "matrix": [
        0.004548950120806694,
        2.2204230205420596e-16,
        -0.9999896287918091,
        0.0,
        -0.9999896287918091,
        1.0100698323981958e-18,
        -0.004548950120806694,
        0.0,
        0.0,
        1.0,
        2.220446049250313e-16,
        0.0,
        0.1284322440624237,
        8.466163790978186e-18,
        -0.038128212094306946,
        1.0
      ],
      "name": "Sketchfab_model"
    },
    {
      "children": [
        2
      ],
      "matrix": [
        0.009999999776482582,
        0.0,
        0.0,
        0.0,
        0.0,
        0.0,
        0.009999999776482582,
        0.0,
        0.0,
        -0.009999999776482582,
        0.0,
        0.0,
        0.0,
        0.0,
        0.0,
        1.0
      ],
      "name": "0ad17492f58b49cab1bfe102aa51a7fb.fbx"
    },
    {
      "children": [
        3
      ],
      "name": "RootNode"
    },
    {
      "children": [
        4,
        6
      ],
      "matrix": [
        4.440892098500626e-16,
        0.0,
        -1.0,
        0.0,
        0.0,
        1.0,
        0.0,
        0.0,
        1.0,
        0.0,
        4.440892098500626e-16,
        0.0,
        0.0,
        0.0,
        -8.531038284301758,
        1.0
      ],
      "name": "group22"
    },
    {
      "children": [
        5
      ],
      "matrix": [
        1.0441123247146606,
        0.0,
        0.0,
        0.0,
        0.0,
        0.42162013053894043,
        0.0,
        0.0,
        0.0,
        0.0,
        0.01357105653733015,
        0.0,
        -0.17868611216545105,
        2.5507054328918457,
        4.331713676452637,
        1.0
      ],
      "name": "pCube261"
    },
    {
      "mesh": 0,
      "name": "pCube261_blind_0"
    },
    {
      "children": [
        7,
        10
      ],
      "name": "group23"
    },
    {
      "children": [
        8,
        9
      ],
      "matrix": [
        1.0,
        0.0,
        0.0,
        0.0,
        0.0,
        1.0,
        0.0,
        0.0,
        0.0,
        0.0,
        1.0,
        0.0,
        3.552713678800501e-15,
        0.0,
        6.137853622436523,
        1.0
      ],
      "name": "pCube262"
    },
    {
      "mesh": 1,
      "name": "pCube262_blind_0"
    },
    {
      "mesh": 2,
      "name": "pCube262_silver_0"
    },
    {
      "children": [
        11
      ],
      "matrix": [
        -2.4427048476318813e-16,
        0.2750241160392761,
        6.106762119079703e-17,
        0.0,
        1.2213524238159407e-15,
        -6.106762119079703e-17,
        0.2750241160392761,
        0.0,
        0.2750241160392761,
        2.4427048476318813e-16,
        -1.2213524238159407e-15,
        0.0,
        3.756476402282715,
        1.245295524597168,
        4.355244159698486,
        1.0
      ],
      "name": "group12_pCube232"
    },
    {
      "mesh": 3,
      "name": "group12_pCube232_switch_white_0"
    }
  ],
  "samplers": [
    {
      "magFilter": 9729,
      "minFilter": 9987,
      "wrapS": 10497,
      "wrapT": 10497
    }
  ],
  "scene": 0,
  "scenes": [
    {
      "name": "Sketchfab_Scene",
      "nodes": [
        0
      ]
    }
  ],
  "textures": [
    {
      "sampler": 0,
      "source": 0
    },
    {
      "sampler": 0,
      "source": 1
    }
  ]
}
