{
  "accessors": [
    {
      "bufferView": 2,
      "componentType": 5126,
      "count": 888,
      "max": [
        94.95860290527344,
        163.3070068359375,
        19.183895111083984
      ],
      "min": [
        -94.95860290527344,
        141.7985382080078,
        -19.183895111083984
      ],
      "type": "VEC3"
    },
    {
      "bufferView": 2,
      "byteOffset": 10656,
      "componentType": 5126,
      "count": 888,
      "max": [
        0.9999994039535522,
        0.9999840259552002,
        0.9988510608673096
      ],
      "min": [
        -0.9999994039535522,
        -0.9999840259552002,
        -0.9988034963607788
      ],
      "type": "VEC3"
    },
    {
      "bufferView": 3,
      "componentType": 5126,
      "count": 888,
      "max": [
        0.9159256219863892,
        0.9999948740005493,
        0.9999978542327881,
        1.0
      ],
      "min": [
        -0.9159259796142578,
        -0.9988035559654236,
        -0.9999890923500061,
        1.0
      ],
      "type": "VEC4"
    },
    {
      "bufferView": 1,
      "componentType": 5126,
      "count": 888,
      "max": [
        0.8170620203018188,
        1.0
      ],
      "min": [
        0.0,
        -5.193684160043413e-16
      ],
      "type": "VEC2"
    },
    {
      "bufferView": 0,
      "componentType": 5125,
      "count": 3492,
      "type": "SCALAR"
    },
    {
      "bufferView": 4,
      "componentType": 5126,
      "count": 1,
      "max": [
        0.0416666679084301
      ],
      "min": [
        0.0416666679084301
      ],
      "type": "SCALAR"
    },
    {
      "bufferView": 5,
      "componentType": 5126,
      "count": 1,
      "max": [
        0.0,
        0.0,
        0.0
      ],
      "min": [
        0.0,
        0.0,
        0.0
      ],
      "type": "VEC3"
    },
    {
      "bufferView": 4,
      "byteOffset": 4,
      "componentType": 5126,
      "count": 1,
      "max": [
        0.0416666679084301
      ],
      "min": [
        0.0416666679084301
      ],
      "type": "SCALAR"
    },
    {
      "bufferView": 5,
      "byteOffset": 12,
      "componentType": 5126,
      "count": 1,
      "max": [
        151.88584899902344,
        4.968228340148926,
        37.129554748535156
      ],
      "min": [
        151.88584899902344,
        4.968228340148926,
        37.129554748535156
      ],
      "type": "VEC3"
    }
  ],
  "animations": [
    {
      "channels": [
        {
          "sampler": 0,
          "target": {
            "node": 4,
            "path": "translation"
          }
        },
        {
          "sampler": 1,
          "target": {
            "node": 4,
            "path": "scale"
          }
        }
      ],
      "name": "Take 001",
      "samplers": [
        {
          "input": 5,
          "interpolation": "LINEAR",
          "output": 6
        },
        {
          "input": 7,
          "interpolation": "LINEAR",
          "output": 8
        }
      ]
    }
  ],
  "asset": {
    "extras": {
      "author": "MatthewHicks (https://sketchfab.com/MatthewHicks)",
      "license": "CC-BY-4.0 (http://creativecommons.org/licenses/by/4.0/)",
      "source": "https://sketchfab.com/3d-models/wooden-shelf-5bb777dbc1634a7d82eaa40fef5eef52",
      "title": "Wooden Shelf"
    },
    "generator": "Sketchfab-14.49.0",
    "version": "2.0"
  },
  "bufferViews": [
    {
      "buffer": 0,
      "byteLength": 13968,
      "name": "floatBufferViews",
      "target": 34963
    },
    {
      "buffer": 0,
      "byteLength": 7104,
      "byteOffset": 13968,
      "byteStride": 8,
      "name": "floatBufferViews",
      "target": 34962
    },
    {
      "buffer": 0,
      "byteLength": 21312,
      "byteOffset": 21072,
      "byteStride": 12,
      "name": "floatBufferViews",
      "target": 34962
    },
    {
      "buffer": 0,
      "byteLength": 14208,
      "byteOffset": 42384,
      "byteStride": 16,
      "name": "floatBufferViews",
      "target": 34962
    },
    {
      "buffer": 0,
      "byteLength": 8,
      "byteOffset": 56592,
      "name": "floatBufferViews"
    },
    {
      "buffer": 0,
      "byteLength": 24,
      "byteOffset": 56600,
      "byteStride": 12,
      "name": "floatBufferViews"
    }
  ],
  "buffers": [
    {
      "byteLength": 56624,
      "uri": "scene.bin"
    }
  ],
  "images": [
    {
      "uri": "textures/lambert1_baseColor.png"
    },
    {
      "uri": "textures/lambert1_metallicRoughness.png"
    },
    {
      "uri": "textures/lambert1_normal.png"
    }
  ],
  "materials": [
    {
      "doubleSided": true,
      "name": "lambert1",
      "normalTexture": {
        "index": 2
      },
      "pbrMetallicRoughness": {
        "baseColorTexture": {
          "index": 0
        },
        "metallicRoughnessTexture": {
          "index": 1
        }
      }
    }
  ],
  "meshes": [
    {
      "name": "pCube5_lambert1_0",
      "primitives": [
        {
          "attributes": {
            "NORMAL": 1,
            "POSITION": 0,
            "TANGENT": 2,
            "TEXCOORD_0": 3
          },
          "indices": 4,
          "material": 0,
          "mode": 4
        }
      ]
    }
  ],
  "nodes": [
    {
      "children": [
        1
      ],
      "matrix": [
        1.0,
        0.0,
        0.0,
        0.0,
        0.0,
        2.220446049250313e-16,
        -1.0,
        0.0,
        0.0,
        1.0,
        2.220446049250313e-16,
        0.0,
        0.0,
        0.0,
        0.0,
        1.0
      ],
      "name": "Sketchfab_model"
    },
    {
      "children": [
        2
      ],
      "matrix": [
        0.009999999776482582,
        0.0,
        0.0,
        0.0,
        0.0,
        0.0,
        0.009999999776482582,
        0.0,
        0.0,
        -0.009999999776482582,
        0.0,
        0.0,
        0.0,
        0.0,
        0.0,
        1.0
      ],
      "name": "2fb0f04459684ce4afdc7e1e5d6cf17c.fbx"
    },
    {
      "children": [
        3
      ],
      "name": "Object_2"
    },
    {
      "children": [
        4,
        6,
        8,
        10,
        12
      ],
      "name": "RootNode"
    },
    {
      "children": [
        5
      ],
      "name": "pCube1",
      "scale": [
        177.1221923828125,
        5.502101898193359,
        38.367794036865234
      ],
      "translation": [
        0.0,
        160.5559539794922,
        0.0
      ]
    },
    {
      "name": "transform2"
    },
    {
      "children": [
        7
      ],
      "name": "pCube2",
      "rotation": [
        0.0,
        0.0,
        0.7071068286895752,
        0.7071068286895752
      ],
      "scale": [
        156.13999938964844,
        5.502101898193359,
        37.91191864013672
      ],
      "translation": [
        3.552713678800501e-15,
        167.11036682128906,
        0.22785557806491852
      ]
    },
    {
      "name": "transform1"
    },
    {
      "children": [
        9
      ],
      "name": "pCube3",
      "rotation": [
        0.0,
        0.0,
        0.7071068286895752,
        0.7071068286895752
      ],
      "scale": [
        156.13999938964844,
        5.502101898193359,
        37.91191864013672
      ],
      "translation": [
        76.10172271728516,
        167.11036682128906,
        0.22785557806491852
      ]
    },
    {
      "name": "transform4"
    },
    {
      "children": [
        11
      ],
      "name": "pCube4",
      "rotation": [
        0.0,
        0.0,
        0.7071068286895752,
        0.7071068286895752
      ],
      "scale": [
        156.13999938964844,
        5.502101898193359,
        37.91191864013672
      ],
      "translation": [
        -75.19127655029297,
        167.11036682128906,
        0.22785557806491852
      ]
    },
    {
      "name": "transform3"
    },
    {
      "children": [
        13
      ],
      "name": "pCube5",
      "translation": [
        0.0,
        -157.80490112304688,
        0.0
      ]
    },
    {
      "mesh": 0,
      "name": "pCube5_lambert1_0"
    }
  ],
  "samplers": [
    {
      "magFilter": 9729,
      "minFilter": 9987,
      "wrapS": 10497,
      "wrapT": 10497
    }
  ],
  "scene": 0,
  "scenes": [
    {
      "name": "Sketchfab_Scene",
      "nodes": [
        0
      ]
    }
  ],
  "textures": [
    {
      "sampler": 0,
      "source": 0
    },
    {
      "sampler": 0,
      "source": 1
    },
    {
      "sampler": 0,
      "source": 2
    }
  ]
}
