{
  "accessors": [
    {
      "bufferView": 2,
      "componentType": 5126,
      "count": 29818,
      "max": [
        2.3269031047821045,
        2.223301410675049,
        2.688729763031006
      ],
      "min": [
        -1.734176754951477,
        -1.9877452850341797,
        -1.8606834411621094
      ],
      "type": "VEC3"
    },
    {
      "bufferView": 2,
      "byteOffset": 357816,
      "componentType": 5126,
      "count": 29818,
      "max": [
        0.9999473690986633,
        0.9999731183052063,
        0.9998700022697449
      ],
      "min": [
        -0.9997939467430115,
        -0.9998701214790344,
        -0.9999818205833435
      ],
      "type": "VEC3"
    },
    {
      "bufferView": 1,
      "componentType": 5126,
      "count": 29818,
      "max": [
        0.9981859922409058,
        0.9998912811279297
      ],
      "min": [
        2.185441553592682e-05,
        2.1644984371960163e-05
      ],
      "type": "VEC2"
    },
    {
      "bufferView": 0,
      "componentType": 5125,
      "count": 149727,
      "type": "SCALAR"
    }
  ],
  "asset": {
    "extras": {
      "author": "alban (https://sketchfab.com/alban)",
      "license": "CC-BY-4.0 (http://creativecommons.org/licenses/by/4.0/)",
      "source": "https://sketchfab.com/3d-models/cactus-f54f24285a1a407c8e71df1f516f749e",
      "title": "Cactus"
    },
    "generator": "Sketchfab-12.63.0",
    "version": "2.0"
  },
  "bufferViews": [
    {
      "buffer": 0,
      "byteLength": 598908,
      "name": "floatBufferViews",
      "target": 34963
    },
    {
      "buffer": 0,
      "byteLength": 238544,
      "byteOffset": 598908,
      "byteStride": 8,
      "name": "floatBufferViews",
      "target": 34962
    },
    {
      "buffer": 0,
      "byteLength": 715632,
      "byteOffset": 837452,
      "byteStride": 12,
      "name": "floatBufferViews",
      "target": 34962
    }
  ],
  "buffers": [
    {
      "byteLength": 1553084,
      "uri": "scene.bin"
    }
  ],
  "extensionsUsed": [
    "KHR_materials_unlit"
  ],
  "images": [
    {
      "uri": "textures/material0_baseColor.jpeg"
    }
  ],
  "materials": [
    {
      "doubleSided": true,
      "extensions": {
        "KHR_materials_unlit": {}
      },
      "name": "material0",
      "pbrMetallicRoughness": {
        "baseColorTexture": {
          "index": 0
        },
        "metallicFactor": 0.0
      }
    }
  ],
  "meshes": [
    {
      "name": "Model_material0_0",
      "primitives": [
        {
          "attributes": {
            "NORMAL": 1,
            "POSITION": 0,
            "TEXCOORD_0": 2
          },
          "indices": 3,
          "material": 0,
          "mode": 4
        }
      ]
    }
  ],
  "nodes": [
    {
      "children": [
        1
      ],
      "matrix": [
        0.10616578189234538,
        -0.053862445168022965,
        -0.002355399811442572,
        0.0,
        0.0001946256271321556,
        0.005584840372813064,
        -0.11893971180621499,
        0.0,
        0.05391356970222816,
        0.1060449453102148,
        0.005067584606674914,
        0.0,
        0.21977528929710388,
        0.09429088234901428,
        0.02361268550157549,
        1.0
      ],
      "name": "Sketchfab_model"
    },
    {
      "children": [
        2
      ],
      "matrix": [
        1.0,
        0.0,
        0.0,
        0.0,
        0.0,
        -1.0,
        0.0,
        0.0,
        0.0,
        0.0,
        -1.0,
        0.0,
        0.0,
        0.0,
        0.0,
        1.0
      ],
      "name": "model.fbx"
    },
    {
      "children": [
        3
      ],
      "name": "RootNode"
    },
    {
      "children": [
        4
      ],
      "name": "Model"
    },
    {
      "mesh": 0,
      "name": "Model_material0_0"
    }
  ],
  "samplers": [
    {
      "magFilter": 9729,
      "minFilter": 9987,
      "wrapS": 10497,
      "wrapT": 10497
    }
  ],
  "scene": 0,
  "scenes": [
    {
      "name": "Sketchfab_Scene",
      "nodes": [
        0
      ]
    }
  ],
  "textures": [
    {
      "sampler": 0,
      "source": 0
    }
  ]
}
