# Blender 4.2.3 LTS
# www.blender.org
mtllib okno.mtl
o Cube
v -1.722962 -0.030878 0.013782
v -1.717055 0.065763 0.011144
v -1.722962 -0.030878 -0.005205
v -1.717055 0.065763 -0.007844
v 0.999589 -0.030878 0.013782
v 1.005496 0.065763 0.011144
v 0.999589 -0.030878 -0.005205
v 1.005496 0.065763 -0.007844
vn -0.9981 0.0610 -0.0000
vn 0.9981 -0.0610 -0.0000
vn -0.0000 0.0273 0.9996
vn -0.0000 -1.0000 -0.0000
vn -0.0000 1.0000 -0.0000
vt 0.375000 0.000000
vt 0.625000 0.000000
vt 0.625000 0.250000
vt 0.375000 0.250000
vt 0.375000 0.500000
vt 0.625000 0.500000
vt 0.625000 0.750000
vt 0.375000 0.750000
vt 0.625000 1.000000
vt 0.375000 1.000000
vt 0.125000 0.500000
vt 0.125000 0.750000
vt 0.875000 0.500000
vt 0.875000 0.750000
s 0
usemtl Material.001
f 1/1/1 2/2/1 4/3/1 3/4/1
f 7/5/2 8/6/2 6/7/2 5/8/2
f 5/8/3 6/7/3 2/9/3 1/10/3
f 3/11/4 7/5/4 5/8/4 1/12/4
f 8/6/5 4/13/5 2/14/5 6/7/5
